{
    "asset" : {
        "generator" : "Khronos glTF Blender I/O v1.4.40",
        "version" : "2.0"
    },
    "scene" : 0,
    "scenes" : [
        {
            "name" : "Bake",
            "nodes" : [
                1
            ]
        }
    ],
    "nodes" : [
        {
            "mesh" : 0,
            "name" : "Cloth"
        },
        {
            "children" : [
                0
            ],
            "name" : "clo_0_Scene_Node"
        }
    ],
    "materials" : [
        {
            "doubleSided" : true,
            "name" : "Denim_FRONT_1545",
            "normalTexture" : {
                "index" : 0,
                "scale" : 0.800000011920929,
                "texCoord" : 0
            },
            "occlusionTexture" : {
                "index" : 1,
                "texCoord" : 0
            },
            "pbrMetallicRoughness" : {
                "baseColorTexture" : {
                    "index" : 2,
                    "texCoord" : 0
                },
                "metallicRoughnessTexture" : {
                    "index" : 1,
                    "texCoord" : 0
                }
            }
        }
    ],
    "meshes" : [
        {
            "name" : "Cloth_mesh",
            "primitives" : [
                {
                    "attributes" : {
                        "POSITION" : 0,
                        "NORMAL" : 1,
                        "TEXCOORD_0" : 2
                    },
                    "indices" : 3,
                    "material" : 0
                }
            ]
        }
    ],
    "textures" : [
        {
            "sampler" : 0,
            "source" : 0
        },
        {
            "sampler" : 0,
            "source" : 1
        },
        {
            "sampler" : 0,
            "source" : 2
        }
    ],
    "images" : [
        {
            "mimeType" : "image/png",
            "name" : "Normals",
            "uri" : "Normals.png"
        },
        {
            "mimeType" : "image/png",
            "name" : "AmbientOcclusion-Image_2",
            "uri" : "AmbientOcclusion-Image_2.png"
        },
        {
            "mimeType" : "image/png",
            "name" : "Image_0",
            "uri" : "Image_0.png"
        }
    ],
    "accessors" : [
        {
            "bufferView" : 0,
            "componentType" : 5126,
            "count" : 5156,
            "max" : [
                0.3734486699104309,
                1.059370994567871,
                0.10291244834661484
            ],
            "min" : [
                -0.2139110118150711,
                0.049312084913253784,
                -0.21136243641376495
            ],
            "type" : "VEC3"
        },
        {
            "bufferView" : 1,
            "componentType" : 5126,
            "count" : 5156,
            "type" : "VEC3"
        },
        {
            "bufferView" : 2,
            "componentType" : 5126,
            "count" : 5156,
            "type" : "VEC2"
        },
        {
            "bufferView" : 3,
            "componentType" : 5123,
            "count" : 27852,
            "type" : "SCALAR"
        }
    ],
    "bufferViews" : [
        {
            "buffer" : 0,
            "byteLength" : 61872,
            "byteOffset" : 0
        },
        {
            "buffer" : 0,
            "byteLength" : 61872,
            "byteOffset" : 61872
        },
        {
            "buffer" : 0,
            "byteLength" : 41248,
            "byteOffset" : 123744
        },
        {
            "buffer" : 0,
            "byteLength" : 55704,
            "byteOffset" : 164992
        }
    ],
    "samplers" : [
        {
            "magFilter" : 9729,
            "minFilter" : 9986
        }
    ],
    "buffers" : [
        {
            "byteLength" : 220696,
            "uri" : "result.bin"
        }
    ]
}
